# xmcd
# 
# Track frame offsets:
#     150
#     18322
#     37296
#     52596
#     69604
#     86687
#     101091
#     115484
#     133121
#     150193
#     169094
#     183527
#     197535
#     215784
#     232467
#     249618
#     266153
#     280483
#     292525
#     310857
# 
# Disc length: 4602
# 
# Revision: 1
# Processed by: cddbd v1.5.2PL0 Copyright (c) Steve Scherf et al.
# Submitted via: fre:ac v1.0.31
# 
DISCID=2c11f814
DTITLE=Various Artist - 90 Les années cultes Les Tubes CD 3
DYEAR=2008
DGENRE=dance
TTITLE0=Robert Miles - Children
TTITLE1=Shabba Ranks - My loverman
TTITLE2=The Bucketheads - The Bomb !
TTITLE3=Mousse T. vs Hot 'N' Juicy - Horny'98
TTITLE4=Paradisio - Baïlando
TTITLE5=Paul Johnson - Get get down
TTITLE6=Pin-occhio - Pin-Occhio
TTITLE7=Playahitty - The summer is magic
TTITLE8=Regina - day by day
TTITLE9=Robin S - Show me love
TTITLE10=Sister Queen - Saturday every man a queen
TTITLE11=Elmer Food Beat - Le plastique c'est fantastique
TTITLE12=Benny B - Qu'est ce qu'on fait maintenant ?
TTITLE13=2 Unlimited - Get ready for this
TTITLE14=The Blue Boy - Remember me
TTITLE15=Whigfield - Saturday night
TTITLE16=Lutricia Mc Neal - Ain't just the way
TTITLE17=The Smashing Pumkins - I am one
TTITLE18=Armand Van Helden - The funk phenomena
TTITLE19=Laurent Garnier - Wake up
EXTD=
EXTT0=
EXTT1=
EXTT2=
EXTT3=
EXTT4=
EXTT5=
EXTT6=
EXTT7=
EXTT8=
EXTT9=
EXTT10=
EXTT11=
EXTT12=
EXTT13=
EXTT14=
EXTT15=
EXTT16=
EXTT17=
EXTT18=
EXTT19=
PLAYORDER=
